<?xml version="1.0" standalone="no"?><!DOCTYPE svg PUBLIC "-//W3C//DTD SVG 1.1//EN" "http://www.w3.org/Graphics/SVG/1.1/DTD/svg11.dtd"><svg t="1694485199229" class="icon" viewBox="0 0 1024 1024" version="1.1" xmlns="http://www.w3.org/2000/svg" p-id="1867" xmlns:xlink="http://www.w3.org/1999/xlink" width="200" height="200"><path d="M0 0m0 0l1024 0q0 0 0 0l0 1024q0 0 0 0l-1024 0q0 0 0 0l0-1024q0 0 0 0Z" fill="#E8EFF8" p-id="1868"></path><path d="M796.997818 553.821091l-500.363636-290.909091L314.181818 232.727273l34.909091-0.768 11.636364 535.272727L325.818182 768l-15.592727-31.232 488.727272-244.363636L814.545455 523.636364l-17.547637 30.184727z m90.996364-27.880727L292.096 823.877818l-14.196364-652.613818 554.170182 322.187636 55.877818 32.488728z" fill="#A0BFF7" p-id="1869"></path><path d="M442.181818 232.727273a116.363636 116.363636 0 1 1-232.727273 0 116.363636 116.363636 0 0 1 232.727273 0zM465.454545 744.727273a116.363636 116.363636 0 1 1-232.727272 0 116.363636 116.363636 0 0 1 232.727272 0z" fill="#247ADE" p-id="1870"></path><path d="M907.636364 535.272727a116.363636 116.363636 0 1 1-232.727273 0 116.363636 116.363636 0 0 1 232.727273 0z" fill="#69CB91" p-id="1871"></path></svg>